<svg width="728" height="331" viewBox="0 0 728 331" fill="none" xmlns="http://www.w3.org/2000/svg">
<path d="M689.158 114.998C689.158 111.256 690.284 107.598 692.397 104.486C694.506 101.375 697.507 98.9498 701.019 97.5179C704.527 96.086 708.392 95.711 712.119 96.4413C715.842 97.1713 719.265 98.9733 721.955 101.619C724.64 104.265 726.469 107.637 727.21 111.307C727.952 114.977 727.572 118.781 726.119 122.239C724.663 125.696 722.2 128.651 719.042 130.73C715.884 132.809 712.169 133.919 708.369 133.919C703.274 133.919 698.387 131.925 694.787 128.377C691.183 124.828 689.158 120.016 689.158 114.998Z" fill="#86BC25"/>
<path d="M110.538 63.4588C110.538 85.3562 104.557 102.246 92.5949 114.128C80.6329 126.01 63.8175 131.938 42.148 131.913H-0.115234V0.567261H45.068C65.9691 0.567261 82.1059 5.95326 93.4786 16.7253C104.851 27.4974 110.538 43.0751 110.538 63.4588ZM74.0375 64.7076C74.0375 52.6742 71.6681 43.7437 66.9296 37.9162C64.2786 34.9159 60.9532 32.5666 57.2179 31.0556C53.4826 29.5446 49.4404 28.9136 45.4138 29.2128H35.1937V102.813H42.878C53.5591 102.813 61.397 99.6726 66.3917 93.391C71.3865 87.1094 73.9476 77.5482 74.0759 64.7076" fill="#f2f2f2"/>
<path d="M260.802 0H227.261V131.913H260.802V0Z" fill="#f2f2f2"/>
<path d="M370.802 82.7203C370.802 98.7145 366.524 111.202 357.969 120.183C349.414 129.164 337.452 133.654 322.084 133.654C315.561 133.958 309.046 132.886 302.977 130.511C296.907 128.135 291.423 124.511 286.89 119.88C278.181 110.723 273.827 98.3361 273.827 82.7203C273.827 67.1044 278.105 54.6926 286.66 45.4848C295.189 36.63 307.177 32.2026 322.622 32.2026C331.449 32.0268 340.168 34.141 347.903 38.3329C355.19 42.4227 361.086 48.545 364.847 55.9289C368.969 64.2652 371.011 73.4504 370.802 82.7203ZM307.868 82.7203C307.49 89.2716 308.592 95.8246 311.096 101.906C312.064 103.999 313.656 105.753 315.659 106.936C317.663 108.118 319.984 108.673 322.315 108.528C324.621 108.672 326.915 108.114 328.888 106.929C330.861 105.744 332.415 103.991 333.341 101.906C335.806 95.8003 336.907 89.244 336.569 82.6824C336.923 76.2146 335.808 69.7507 333.303 63.762C332.191 61.8256 330.578 60.2147 328.627 59.0939C326.676 57.9731 324.458 57.3824 322.199 57.3824C319.941 57.3824 317.723 57.9731 315.772 59.0939C313.821 60.2147 312.207 61.8256 311.096 63.762C308.535 69.7363 307.392 76.2075 307.753 82.6824" fill="#f2f2f2"/>
<path d="M417.675 33.9432H384.134V131.913H417.675V33.9432Z" fill="#f2f2f2"/>
<path d="M417.675 0H384.134V22.0612H417.675V0Z" fill="#f2f2f2"/>
<path d="M485.565 106.938C491.128 106.729 496.611 105.577 501.779 103.533V128.394C497.629 130.208 493.303 131.602 488.869 132.557C484.14 133.482 479.322 133.913 474.5 133.843C463.231 133.843 455.109 131.056 450.141 125.481C445.173 119.905 442.687 111.366 442.687 99.8622V59.2589H430.969V33.7921H442.687V8.77929L476.498 2.98962V33.7921H497.898V59.1075H476.498V97.2512C476.498 103.608 479.533 106.787 485.565 106.787" fill="#f2f2f2"/>
<path d="M563.176 106.938C568.739 106.729 574.226 105.577 579.389 103.533V128.394C575.24 130.208 570.914 131.602 566.48 132.557C561.75 133.48 556.932 133.911 552.11 133.843C540.865 133.843 532.746 131.056 527.752 125.481C522.757 119.905 520.271 111.366 520.298 99.8622V59.2589H508.541V33.7921H520.298V8.40088L554.07 2.98962V33.7921H575.47V59.1075H554.07V97.2512C554.07 103.608 557.105 106.787 563.176 106.787" fill="#f2f2f2"/>
<path d="M668.949 43.7445C661.007 36.1762 649.711 32.3921 635.061 32.3921C619.693 32.3921 607.859 36.8195 599.56 45.6744C591.262 54.5292 587.124 67.2184 587.151 83.7423C587.151 99.7869 591.619 112.148 600.559 120.826C609.5 129.504 622.064 133.844 638.25 133.844C644.97 133.93 651.686 133.398 658.306 132.254C663.95 131.204 669.402 129.329 674.481 126.692L669.333 104.631C665.818 106.059 662.194 107.223 658.498 108.112C653.162 109.259 647.71 109.818 642.246 109.777C636.721 110.092 631.269 108.44 626.878 105.122C624.999 103.521 623.497 101.538 622.471 99.3112C621.441 97.0843 620.915 94.6647 620.923 92.2187H680.859V77.0823C680.859 62.6271 676.864 51.5397 668.872 43.8202L668.949 43.7445ZM621.614 70.8386C621.664 66.4793 623.316 62.2854 626.263 59.0322C628.93 56.5275 632.495 55.1668 636.176 55.2481C638.097 55.1592 640.018 55.4937 641.793 56.2267C643.564 56.9597 645.151 58.0733 646.434 59.4863C649.058 62.693 650.422 66.7226 650.276 70.8386H621.614Z" fill="#f2f2f2"/>
<path d="M202.326 43.7445C194.373 36.1762 183.116 32.3921 168.4 32.3921C153.032 32.3921 141.211 36.8195 132.938 45.6744C124.664 54.5292 120.515 67.2184 120.489 83.7423C120.489 99.7869 124.959 112.148 133.898 120.826C142.838 129.504 155.401 133.844 171.589 133.844C178.31 133.93 185.025 133.398 191.645 132.254C197.301 131.208 202.766 129.333 207.859 126.692L202.71 104.631C199.191 106.053 195.57 107.217 191.876 108.112C186.537 109.255 181.087 109.814 175.623 109.777C170.1 110.092 164.645 108.44 160.255 105.122C158.367 103.527 156.853 101.547 155.818 99.3195C154.783 97.0915 154.252 94.6685 154.261 92.2187H214.198V77.0823C214.198 62.6271 210.356 51.5397 202.249 43.8202L202.326 43.7445ZM154.953 70.8386C155.015 66.4744 156.68 62.2801 159.64 59.0322C160.956 57.7869 162.51 56.8114 164.212 56.1616C165.913 55.5123 167.729 55.2016 169.553 55.2481C171.469 55.1649 173.38 55.5021 175.147 56.235C176.914 56.968 178.494 58.0783 179.773 59.4863C182.415 62.6827 183.781 66.7196 183.615 70.8386H154.953Z" fill="#f2f2f2"/>
<path d="M95.6301 225.456C95.6301 246.306 90.0975 262.01 78.9938 272.682C67.8901 283.353 51.638 288.688 30.1606 288.688H-0.115234V164.608H33.9258C54.0071 164.608 69.2987 169.792 79.8007 180.161C90.4049 190.491 95.6301 205.627 95.6301 225.456ZM86.0633 225.797C86.0633 208.137 81.4781 194.78 72.3086 185.723C63.1386 176.667 49.6912 172.176 31.9663 172.252H8.91371V281.044H29.7379C67.2881 281.044 86.0633 262.628 86.0633 225.797Z" fill="#f2f2f2"/>
<path d="M120.949 288.688H112.42V196.507H120.949V288.688Z" fill="#f2f2f2"/>
<path d="M120.949 185.686H112.42V174.333H120.949V185.686Z" fill="#f2f2f2"/>
<path d="M238.671 288.688H230.142V196.507H238.671V288.688Z" fill="#f2f2f2"/>
<path d="M238.671 185.686H230.142V174.333H238.671V185.686Z" fill="#f2f2f2"/>
<path d="M215.042 196.508V202.374L195.831 203.547C200.781 209.417 203.499 216.804 203.516 224.435C203.664 228.463 202.935 232.474 201.377 236.202C199.82 239.929 197.47 243.284 194.487 246.042C187.836 251.802 179.164 254.776 170.32 254.329C167.326 254.407 164.331 254.23 161.368 253.799C158.36 255.265 155.732 257.388 153.683 260.005C151.983 262.174 151.052 264.833 151.032 267.573C150.939 268.854 151.206 270.135 151.802 271.275C152.398 272.417 153.302 273.374 154.413 274.044C158.013 275.691 161.983 276.395 165.94 276.088H182.307C190.555 275.547 198.758 277.673 205.667 282.142C208.392 284.262 210.554 287.002 211.966 290.126C213.378 293.25 213.999 296.666 213.774 300.079C213.972 304.57 212.965 309.034 210.854 313.02C208.742 317.006 205.602 320.373 201.748 322.783C193.757 328.043 182.307 330.692 167.515 330.692C155.707 330.692 146.588 328.459 140.159 323.994C137.059 321.958 134.539 319.176 132.837 315.911C131.136 312.646 130.31 309.007 130.439 305.339C130.239 299.505 132.394 293.831 136.432 289.559C140.845 285.146 146.511 282.152 152.685 280.969C149.98 279.829 147.633 278.001 145.884 275.671C144.196 273.503 143.302 270.835 143.348 268.103C143.348 261.948 147.344 256.524 155.336 251.832C150.068 249.787 145.6 246.141 142.58 241.425C138.959 235.424 137.424 228.424 138.207 221.485C138.991 214.547 142.05 208.05 146.921 202.979C153.515 197.168 162.175 194.161 171.011 194.616C175.842 194.444 180.669 195.045 185.304 196.395L215.042 196.508ZM139.352 304.317C139.352 316.93 148.919 323.237 168.053 323.237C192.591 323.237 204.873 315.518 204.899 300.079C205.092 297.746 204.662 295.404 203.651 293.286C202.64 291.168 201.083 289.349 199.136 288.008C193.387 285.069 186.923 283.759 180.463 284.223H165.095C147.92 284.375 139.352 291.11 139.352 304.317ZM146.499 225.229C146.296 228.318 146.783 231.412 147.925 234.295C149.066 237.178 150.835 239.78 153.107 241.917C158.227 245.735 164.474 247.802 170.896 247.802C177.319 247.802 183.565 245.735 188.685 241.917C190.86 239.671 192.537 237.005 193.608 234.086C194.68 231.167 195.123 228.061 194.909 224.965C195.166 221.734 194.728 218.487 193.622 215.435C192.516 212.383 190.768 209.596 188.493 207.255C183.515 203.071 177.082 200.955 170.55 201.352C167.33 201.177 164.106 201.646 161.075 202.732C158.044 203.818 155.268 205.498 152.915 207.671C150.707 210.026 149.001 212.794 147.9 215.81C146.797 218.826 146.321 222.029 146.499 225.229Z" fill="#f2f2f2"/>
<path d="M376.142 288.688L373.991 274.082H373.299C369.449 279.275 364.492 283.576 358.776 286.683C353.28 289.289 347.239 290.585 341.141 290.467C333.356 290.908 325.693 288.419 319.702 283.504C317.094 281.024 315.057 278.021 313.732 274.697C312.406 271.374 311.821 267.808 312.018 264.243C311.898 260.059 312.9 255.918 314.924 252.237C316.947 248.557 319.921 245.467 323.544 243.279C331.228 238.284 342.178 235.711 356.586 235.37L374.452 234.878V228.786C374.95 221.748 373.028 214.751 368.996 208.92C366.806 206.548 364.088 204.709 361.054 203.547C358.021 202.385 354.756 201.932 351.514 202.222C342.097 202.417 332.869 204.858 324.62 209.336L321.431 202.033C330.942 197.474 341.36 195.044 351.937 194.918C362.183 194.918 369.867 197.542 374.99 202.789C380.112 208.037 382.674 216.248 382.674 227.424V288.764L376.142 288.688ZM341.563 282.747C345.908 283.118 350.282 282.547 354.379 281.074C358.475 279.6 362.194 277.261 365.274 274.221C368.354 271.18 370.72 267.511 372.206 263.473C373.693 259.435 374.262 255.126 373.875 250.847V241.917L357.47 242.598C344.33 243.203 334.955 245.247 329.345 248.653C326.636 250.335 324.439 252.707 322.985 255.518C321.531 258.329 320.875 261.474 321.085 264.621C320.933 267.111 321.335 269.604 322.264 271.925C323.193 274.245 324.627 276.338 326.464 278.055C330.789 281.497 336.289 283.176 341.832 282.747H341.563Z" fill="#f2f2f2"/>
<path d="M414.833 288.688H406.38V156.661H414.833V288.688Z" fill="#f2f2f2"/>
<path d="M289.464 282.899C294.212 282.975 298.955 282.531 303.603 281.574V288.348C298.981 289.78 294.155 290.47 289.311 290.391C285.957 290.664 282.584 290.221 279.421 289.091C276.257 287.961 273.38 286.171 270.984 283.845C267.065 279.506 265.105 272.657 265.105 263.297V203.735H251.235V196.508H264.99V175.847L273.673 174.219V196.508H301.144V203.811H273.673V262.2C273.263 267.701 274.606 273.191 277.515 277.904C278.933 279.643 280.767 281.01 282.852 281.881C284.937 282.753 287.209 283.103 289.464 282.899Z" fill="#f2f2f2"/>
</svg>
