<svg width="36" height="36" viewBox="0 0 36 36" fill="none" xmlns="http://www.w3.org/2000/svg">
<path d="M18 2.059C13.7736 2.06376 9.72176 3.74479 6.73328 6.73327C3.74479 9.72176 2.06377 13.7736 2.059 18C2.06377 22.2264 3.74479 26.2782 6.73328 29.2667C9.72176 32.2552 13.7736 33.9362 18 33.941C22.2264 33.9362 26.2782 32.2552 29.2667 29.2667C32.2552 26.2782 33.9362 22.2264 33.941 18C33.9362 13.7736 32.2552 9.72176 29.2667 6.73327C26.2782 3.74479 22.2264 2.06376 18 2.059ZM18 36C13.2277 35.9947 8.65244 34.0966 5.27793 30.7221C1.90342 27.3476 0.00529371 22.7723 0 18C0.00529371 13.2277 1.90342 8.65243 5.27793 5.27792C8.65244 1.90342 13.2277 0.00529371 18 0C22.7723 0.00529371 27.3476 1.90342 30.7221 5.27792C34.0966 8.65243 35.9947 13.2277 36 18C35.9947 22.7723 34.0966 27.3476 30.7221 30.7221C27.3476 34.0966 22.7723 35.9947 18 36Z" fill="#f2f2f2"/>
<path d="M16.1609 26.8682H19.3509V18.9782H21.9989L22.3779 15.8952H19.3509V13.9502C19.3509 13.0312 19.5669 12.4372 20.8639 12.4372H22.4859V9.68116C22.2159 9.68116 21.2429 9.57316 20.1079 9.57316C19.57 9.53314 19.0298 9.61149 18.5254 9.80268C18.021 9.99388 17.5646 10.2933 17.1884 10.6798C16.8121 11.0664 16.5251 11.5307 16.3476 12.04C16.1701 12.5494 16.1064 13.0915 16.1609 13.6282V15.8982H13.5149V18.9782H16.1609V26.8682Z" fill="#f2f2f2"/>
</svg>
