<svg width="36" height="36" viewBox="0 0 36 36" fill="none" xmlns="http://www.w3.org/2000/svg">
<path d="M18 2.059C13.7736 2.06376 9.72176 3.74479 6.73328 6.73327C3.74479 9.72176 2.06377 13.7736 2.059 18C2.06377 22.2264 3.74479 26.2782 6.73328 29.2667C9.72176 32.2552 13.7736 33.9362 18 33.941C22.2264 33.9362 26.2782 32.2552 29.2667 29.2667C32.2552 26.2782 33.9362 22.2264 33.941 18C33.9362 13.7736 32.2552 9.72176 29.2667 6.73327C26.2782 3.74479 22.2264 2.06376 18 2.059ZM18 36C13.2277 35.9947 8.65244 34.0966 5.27793 30.7221C1.90342 27.3476 0.00529371 22.7723 0 18C0.00529371 13.2277 1.90342 8.65243 5.27793 5.27792C8.65244 1.90342 13.2277 0.00529371 18 0C22.7723 0.00529371 27.3476 1.90342 30.7221 5.27792C34.0966 8.65243 35.9947 13.2277 36 18C35.9947 22.7723 34.0966 27.3476 30.7221 30.7221C27.3476 34.0966 22.7723 35.9947 18 36Z" fill="#f2f2f2"/>
<path d="M22.875 14.7872C22.1943 14.7518 21.5169 14.9045 20.9172 15.2285C20.3175 15.5526 19.8185 16.0354 19.475 16.6242H19.421V15.0572H15.962V26.6222H19.529V20.8932C19.529 19.3802 19.799 17.9212 21.691 17.9212C23.528 17.9212 23.528 19.6502 23.528 21.0012V26.6212H27.203V20.2992C27.203 17.1652 26.503 14.7872 22.88 14.7872" fill="#f2f2f2"/>
<path d="M12.195 9.70605C11.9252 9.70592 11.6581 9.75896 11.4088 9.86214C11.1595 9.96532 10.9331 10.1166 10.7423 10.3074C10.5515 10.4981 10.4003 10.7246 10.2971 10.9739C10.1939 11.2231 10.1409 11.4903 10.141 11.7601C10.141 12.0297 10.1941 12.2968 10.2974 12.5459C10.4006 12.7951 10.5519 13.0214 10.7427 13.2121C10.9334 13.4028 11.1598 13.554 11.409 13.6571C11.6582 13.7602 11.9253 13.8132 12.195 13.8131C12.4671 13.8223 12.7382 13.7754 12.9914 13.6755C13.2446 13.5756 13.4746 13.4247 13.6671 13.2322C13.8597 13.0397 14.0105 12.8097 14.1105 12.5565C14.2104 12.3032 14.2572 12.0321 14.248 11.7601C14.2483 11.4903 14.1953 11.2232 14.0923 10.9739C13.9892 10.7247 13.838 10.4982 13.6473 10.3074C13.4567 10.1167 13.2302 9.96535 12.981 9.86216C12.7318 9.75897 12.4647 9.70592 12.195 9.70605Z" fill="#f2f2f2"/>
<path d="M10.46 26.6182H14.027V15.0532H10.46V26.6182Z" fill="#f2f2f2"/>
</svg>
