<svg width="36" height="36" viewBox="0 0 36 36" fill="none" xmlns="http://www.w3.org/2000/svg">
<path d="M18 2.059C13.7736 2.06376 9.72176 3.74479 6.73328 6.73327C3.74479 9.72176 2.06377 13.7736 2.059 18C2.06377 22.2264 3.74479 26.2782 6.73328 29.2667C9.72176 32.2552 13.7736 33.9362 18 33.941C22.2264 33.9362 26.2782 32.2552 29.2667 29.2667C32.2552 26.2782 33.9362 22.2264 33.941 18C33.9362 13.7736 32.2552 9.72176 29.2667 6.73327C26.2782 3.74479 22.2264 2.06376 18 2.059ZM18 36C13.2277 35.9947 8.65244 34.0966 5.27793 30.7221C1.90342 27.3476 0.00529371 22.7723 0 18C0.00529371 13.2277 1.90342 8.65243 5.27793 5.27792C8.65244 1.90342 13.2277 0.00529371 18 0C22.7723 0.00529371 27.3476 1.90342 30.7221 5.27792C34.0966 8.65243 35.9947 13.2277 36 18C35.9947 22.7723 34.0966 27.3476 30.7221 30.7221C27.3476 34.0966 22.7723 35.9947 18 36Z" fill="#f2f2f2"/>
<path d="M26.232 11.416C25.5336 11.838 24.7651 12.131 23.963 12.281C23.6326 11.9212 23.2306 11.6344 22.7829 11.439C22.3351 11.2435 21.8515 11.1438 21.363 11.146C20.8944 11.1455 20.4304 11.2374 19.9974 11.4165C19.5644 11.5956 19.1709 11.8583 18.8396 12.1896C18.5083 12.5209 18.2455 12.9144 18.0665 13.3474C17.8874 13.7804 17.7955 14.2445 17.796 14.713C17.8055 14.9859 17.8417 15.2572 17.904 15.523C16.4938 15.448 15.1151 15.0773 13.8574 14.4349C12.5998 13.7924 11.4913 12.8927 10.604 11.794C10.2802 12.332 10.1116 12.9491 10.117 13.577C10.1099 14.1638 10.2495 14.743 10.5232 15.262C10.7968 15.781 11.1959 16.2234 11.684 16.549C11.1155 16.5471 10.5571 16.3983 10.063 16.117V16.171C10.0743 16.9878 10.3645 17.7761 10.8854 18.4053C11.4064 19.0344 12.1267 19.4666 12.927 19.63C12.6249 19.6959 12.3171 19.7321 12.008 19.738C11.7906 19.7468 11.573 19.7287 11.36 19.684C11.5824 20.3906 12.02 21.0101 12.6117 21.4558C13.2033 21.9016 13.9195 22.1513 14.66 22.17C13.397 23.1617 11.8347 23.6951 10.229 23.683C9.9396 23.6938 9.64984 23.6757 9.36401 23.629C11.0025 24.6481 12.8925 25.1907 14.822 25.196C16.1485 25.2018 17.4629 24.944 18.6889 24.4376C19.9149 23.9313 21.0281 23.1864 21.9639 22.2463C22.8997 21.3062 23.6395 20.1896 24.1403 18.9613C24.641 17.733 24.8928 16.4175 24.881 15.091V14.658C25.5717 14.1294 26.1894 13.5117 26.718 12.821C26.0575 13.0829 25.3679 13.2642 24.664 13.361C25.4087 12.9283 25.9672 12.2356 26.232 11.416Z" fill="#f2f2f2"/>
</svg>
