<svg width="36" height="36" viewBox="0 0 36 36" fill="none" xmlns="http://www.w3.org/2000/svg">
<path d="M18 2.059C13.7736 2.06376 9.72176 3.74479 6.73328 6.73327C3.74479 9.72176 2.06377 13.7736 2.059 18C2.06377 22.2264 3.74479 26.2782 6.73328 29.2667C9.72176 32.2552 13.7736 33.9362 18 33.941C22.2264 33.9362 26.2782 32.2552 29.2667 29.2667C32.2552 26.2782 33.9362 22.2264 33.941 18C33.9362 13.7736 32.2552 9.72176 29.2667 6.73327C26.2782 3.74479 22.2264 2.06376 18 2.059ZM18 36C13.2277 35.9947 8.65244 34.0966 5.27793 30.7221C1.90342 27.3476 0.00529371 22.7723 0 18C0.00529371 13.2277 1.90342 8.65243 5.27793 5.27792C8.65244 1.90342 13.2277 0.00529371 18 0C22.7723 0.00529371 27.3476 1.90342 30.7221 5.27792C34.0966 8.65243 35.9947 13.2277 36 18C35.9947 22.7723 34.0966 27.3476 30.7221 30.7221C27.3476 34.0966 22.7723 35.9947 18 36Z" fill="#f2f2f2"/>
<path d="M25.1979 21.4542L25.1789 21.7542L25.1499 22.0212L25.1119 22.2592L25.0739 22.4692L25.0359 22.6502L24.9879 22.8122L24.9399 22.9462L24.8919 23.0702L24.8349 23.2232L24.7679 23.3572L24.7009 23.4912L24.6249 23.6152L24.5389 23.7292L24.4529 23.8432L24.3529 23.9572L24.2389 24.0712L24.1249 24.1852L24.0109 24.2852L23.8969 24.3712L23.7829 24.4572L23.6589 24.5332L23.5249 24.6002L23.3909 24.6672L23.2379 24.7242L23.1139 24.7722L22.9799 24.8202L22.8179 24.8682L22.6369 24.9062L22.4269 24.9442L22.1879 24.9822L21.9209 25.0102L21.6209 25.0292L21.0109 25.0482L20.3909 25.0672L19.5039 25.0772H16.7039L15.8169 25.0672L15.1969 25.0482L14.5869 25.0292L14.2869 25.0102L14.0199 24.9822L13.7809 24.9442L13.5709 24.9062L13.3899 24.8682L13.2279 24.8202L13.0939 24.7722L12.9699 24.7242L12.8169 24.6672L12.6829 24.6002L12.5489 24.5332L12.4249 24.4572L12.3109 24.3712L12.1969 24.2852L12.0829 24.1852L11.9689 24.0712L11.8549 23.9572L11.7549 23.8432L11.6689 23.7292L11.5979 23.6122L11.5219 23.4882L11.4549 23.3542L11.3879 23.2202L11.3309 23.0672L11.2829 22.9432L11.2349 22.8092L11.1869 22.6472L11.1489 22.4662L11.1109 22.2562L11.0699 22.0122L11.0409 21.7452L11.0219 21.4452L11.0029 20.8352L10.9839 20.2152L10.9749 19.3282V16.5282L10.9839 15.6412L11.0029 15.0212L11.0219 14.4112L11.0409 14.1112L11.0699 13.8442L11.1079 13.6062L11.1459 13.3962L11.1839 13.2152L11.2319 13.0532L11.2799 12.9192L11.3279 12.7952L11.3849 12.6422L11.4519 12.5082L11.5189 12.3742L11.5949 12.2502L11.6809 12.1352L11.7669 12.0212L11.8669 11.9072L11.9809 11.7922L12.0949 11.6782L12.2089 11.5782L12.3229 11.4922L12.4369 11.4062L12.5609 11.3302L12.6949 11.2632L12.8289 11.1962L12.9819 11.1392L13.1059 11.0912L13.2399 11.0432L13.4019 10.9952L13.5829 10.9572L13.7929 10.9192L14.0319 10.8812L14.2989 10.8522L14.5989 10.8332L15.2089 10.8052L15.8289 10.7952L16.7159 10.7862H19.5159L20.4029 10.7952L21.0229 10.8052L21.6329 10.8332L21.9329 10.8522L22.1999 10.8812L22.4389 10.9192L22.6489 10.9572L22.8299 10.9952L22.9919 11.0432L23.1259 11.0912L23.2499 11.1392L23.4029 11.1962L23.5369 11.2632L23.6709 11.3302L23.7949 11.4062L23.9089 11.4922L24.0229 11.5782L24.1369 11.6782L24.2509 11.7922L24.3649 11.9072L24.4649 12.0212L24.5509 12.1352L24.6369 12.2502L24.7129 12.3742L24.7799 12.5082L24.8469 12.6422L24.9039 12.7952L24.9519 12.9192L24.9999 13.0532L25.0479 13.2152L25.0859 13.3962L25.1239 13.6062L25.1619 13.8442L25.1909 14.1112L25.2099 14.4112L25.2379 15.0212L25.2479 15.6412L25.2569 16.5282V19.3282L25.2479 20.2152L25.2379 20.8352L25.1979 21.4542ZM26.7619 14.3542L26.7429 14.0202L26.7149 13.7052L26.6769 13.4192L26.6289 13.1522L26.5699 12.9002L26.5029 12.6712L26.4359 12.4422L26.3599 12.2322L26.2739 12.0222L26.1739 11.8222L26.0599 11.6222L25.9459 11.4312L25.8219 11.2402L25.6789 11.0592L25.5259 10.8782L25.3449 10.6972L25.1699 10.5122L24.9889 10.3592L24.8079 10.2162L24.6169 10.0922L24.4259 9.97821L24.2259 9.86421L24.0259 9.76421L23.8159 9.67822L23.6059 9.60221L23.3769 9.53521L23.1479 9.46821L22.8999 9.41121L22.6329 9.36321L22.3469 9.32521L22.0319 9.29621L21.6979 9.27721L21.0779 9.24921L20.4489 9.23921L19.5429 9.23021L18.1129 9.22021L16.6829 9.23021L15.7769 9.23921L15.1469 9.24921L14.5269 9.27721L14.1929 9.29621L13.8779 9.32521L13.5919 9.36321L13.3249 9.41121L13.0769 9.46821L12.8479 9.53521L12.6189 9.60221L12.4089 9.67822L12.1989 9.76421L11.9989 9.86421L11.7989 9.97821L11.6079 10.0922L11.4169 10.2162L11.2359 10.3592L11.0549 10.5122L10.8739 10.6932L10.6929 10.8742L10.5399 11.0552L10.3969 11.2362L10.2729 11.4272L10.1589 11.6182L10.0539 11.8182L9.95391 12.0182L9.86791 12.2282L9.79191 12.4382L9.72491 12.6672L9.65791 12.8962L9.60091 13.1442L9.55291 13.4112L9.51491 13.6972L9.48591 14.0122L9.46691 14.3462L9.43891 14.9662L9.42891 15.5952L9.41991 16.5012L9.40991 17.9312L9.41991 19.3612L9.42891 20.2672L9.43891 20.8962L9.46691 21.5162L9.48591 21.8502L9.51491 22.1652L9.55291 22.4512L9.60091 22.7182L9.65791 22.9662L9.72491 23.1952L9.79191 23.4242L9.86791 23.6342L9.95391 23.8442L10.0539 24.0442L10.1589 24.2442L10.2729 24.4352L10.3969 24.6262L10.5399 24.8072L10.6929 24.9882L10.8739 25.1692L11.0549 25.3502L11.2359 25.5032L11.4169 25.6462L11.6079 25.7702L11.7989 25.8842L11.9989 25.9842L12.1989 26.0892L12.4089 26.1752L12.6189 26.2512L12.8479 26.3182L13.0769 26.3852L13.3249 26.4422L13.5919 26.4902L13.8779 26.5282L14.1929 26.5562L14.5269 26.5752L15.1469 26.6042L15.7769 26.6132L16.6829 26.6232L18.1129 26.6322L19.5429 26.6232L20.4489 26.6132L21.0779 26.6042L21.6979 26.5752L22.0319 26.5562L22.3469 26.5282L22.6329 26.4902L22.8999 26.4422L23.1479 26.3852L23.3769 26.3182L23.6059 26.2512L23.8159 26.1752L24.0259 26.0892L24.2259 25.9842L24.4259 25.8842L24.6169 25.7702L24.8079 25.6462L24.9889 25.5032L25.1699 25.3502L25.3509 25.1692L25.5319 24.9882L25.6849 24.8072L25.8279 24.6262L25.9519 24.4352L26.0659 24.2442L26.1799 24.0442L26.2799 23.8442L26.3659 23.6342L26.4419 23.4242L26.5089 23.1952L26.5759 22.9662L26.6329 22.7182L26.6809 22.4512L26.7189 22.1652L26.7469 21.8502L26.7659 21.5162L26.7949 20.8962L26.8039 20.2672L26.8139 19.3612L26.8229 17.9312L26.8139 16.5012L26.8039 15.5952L26.7949 14.9662L26.7619 14.3542Z" fill="#f2f2f2"/>
<path d="M18.1149 20.8329H17.9619L17.8189 20.8239L17.6759 20.8049L17.5329 20.7769L17.3899 20.7479L17.2559 20.7099L17.1129 20.6619L16.9889 20.6049L16.8549 20.5479L16.7309 20.4809L16.6069 20.4139L16.4929 20.3379L16.3789 20.2619L16.2739 20.1759L16.1599 20.0759L16.0599 19.9759L15.9599 19.8759L15.8599 19.7619L15.7739 19.6619L15.6979 19.5479L15.6219 19.4339L15.5549 19.3099L15.4879 19.1859L15.4309 19.0519L15.3739 18.9279L15.3259 18.7849L15.2879 18.6509L15.2599 18.5079L15.2309 18.3649L15.2119 18.2219L15.2029 18.0789V17.7739L15.2119 17.6309L15.2309 17.4879L15.2599 17.3449L15.2879 17.2019L15.3259 17.0679L15.3739 16.9249L15.4309 16.8009L15.4879 16.6669L15.5549 16.5429L15.6219 16.4189L15.6979 16.3049L15.7739 16.1909L15.8599 16.0859L15.9599 15.9719L16.0599 15.8719L16.1599 15.7719L16.2739 15.6719L16.3789 15.5859L16.4929 15.5099L16.6069 15.4339L16.7309 15.3669L16.8549 15.2999L16.9889 15.2429L17.1129 15.1859L17.2559 15.1379L17.3899 15.0999L17.5329 15.0719L17.6759 15.0429L17.8189 15.0239L17.9619 15.0149H18.2669L18.4099 15.0239L18.5529 15.0429L18.6959 15.0719L18.8389 15.0999L18.9729 15.1379L19.1159 15.1859L19.2399 15.2429L19.3739 15.2999L19.4979 15.3669L19.6219 15.4339L19.7359 15.5099L19.8499 15.5859L19.9549 15.6719L20.0689 15.7719L20.1689 15.8719L20.2689 15.9719L20.3689 16.0859L20.4549 16.1909L20.5309 16.3049L20.6069 16.4189L20.6739 16.5429L20.7409 16.6669L20.7979 16.8009L20.8549 16.9249L20.9029 17.0679L20.9409 17.2019L20.9689 17.3449L20.9979 17.4879L21.0169 17.6309L21.0259 17.7739V18.0789L21.0169 18.2219L20.9979 18.3649L20.9689 18.5079L20.9409 18.6509L20.9029 18.7849L20.8549 18.9279L20.7979 19.0519L20.7409 19.1859L20.6739 19.3099L20.6069 19.4339L20.5309 19.5479L20.4549 19.6619L20.3689 19.7619L20.2689 19.8759L20.1689 19.9759L20.0689 20.0759L19.9549 20.1759L19.8499 20.2619L19.7359 20.3379L19.6219 20.4139L19.4979 20.4809L19.3739 20.5479L19.2399 20.6049L19.1159 20.6619L18.9729 20.7099L18.8389 20.7479L18.6959 20.7769L18.5529 20.8049L18.4099 20.8239L18.2669 20.8329H18.1149ZM18.1149 13.4609L17.8859 13.4709L17.6569 13.4899L17.4379 13.5179L17.2189 13.5559L16.9999 13.6039L16.7899 13.6609L16.5799 13.7369L16.3799 13.8129L16.1799 13.9129L15.9889 14.0129L15.7979 14.1129L15.6169 14.2269L15.4449 14.3509L15.2729 14.4849L15.1109 14.6279L14.9579 14.7809L14.8049 14.9339L14.6619 15.0959L14.5279 15.2679L14.4039 15.4399L14.2899 15.6209L14.1899 15.8119L14.0899 16.0029L13.9899 16.2029L13.9139 16.4029L13.8379 16.6129L13.7809 16.8229L13.7329 17.0419L13.6949 17.2609L13.6669 17.4799L13.6479 17.7089L13.6379 17.9379L13.6479 18.1669L13.6669 18.3959L13.6949 18.6149L13.7329 18.8339L13.7809 19.0529L13.8379 19.2629L13.9139 19.4729L13.9899 19.6729L14.0899 19.8729L14.1899 20.0639L14.2899 20.2549L14.4039 20.4359L14.5279 20.6079L14.6619 20.7799L14.8049 20.9419L14.9579 21.0949L15.1109 21.2479L15.2729 21.3909L15.4449 21.5249L15.6169 21.6489L15.7979 21.7639L15.9889 21.8639L16.1799 21.9639L16.3799 22.0639L16.5799 22.1399L16.7899 22.2159L16.9999 22.2729L17.2189 22.3209L17.4379 22.3589L17.6569 22.3869L17.8859 22.4059L18.1149 22.4159L18.3439 22.4059L18.5729 22.3869L18.7919 22.3589L19.0149 22.3109L19.2339 22.2629L19.4439 22.2059L19.6539 22.1299L19.8539 22.0539L20.0539 21.9539L20.2449 21.8539L20.4359 21.7539L20.6169 21.6389L20.7889 21.5149L20.9609 21.3809L21.1229 21.2379L21.2759 21.0849L21.4289 20.9319L21.5719 20.7699L21.7059 20.5979L21.8299 20.4259L21.9439 20.2449L22.0439 20.0539L22.1439 19.8629L22.2439 19.6629L22.3199 19.4629L22.3959 19.2529L22.4529 19.0429L22.5009 18.8239L22.5389 18.6049L22.5669 18.3859L22.5859 18.1569L22.5959 17.9279L22.5859 17.6989L22.5669 17.4699L22.5389 17.2509L22.5009 17.0319L22.4529 16.8129L22.3959 16.6029L22.3199 16.3929L22.2439 16.1929L22.1439 15.9929L22.0439 15.8019L21.9439 15.6109L21.8299 15.4299L21.7059 15.2579L21.5719 15.0859L21.4289 14.9239L21.2759 14.7709L21.1229 14.6179L20.9609 14.4749L20.7889 14.3409L20.6169 14.2169L20.4359 14.1029L20.2449 14.0029L20.0539 13.9029L19.8539 13.8029L19.6539 13.7269L19.4439 13.6509L19.2339 13.5939L19.0149 13.5459L18.7959 13.5079L18.5769 13.4799L18.3479 13.4609H18.1149Z" fill="#f2f2f2"/>
<path d="M22.62 12.3799L22.52 12.3899L22.414 12.4089L22.314 12.4279L22.214 12.4659L22.114 12.5139L22.028 12.5619L21.942 12.6189L21.875 12.6859L21.814 12.7609L21.747 12.8469L21.704 12.9329L21.656 13.0189L21.628 13.1189L21.599 13.2189L21.58 13.3239V13.5339L21.599 13.6339L21.628 13.7339L21.656 13.8339L21.704 13.9339L21.752 14.0199L21.819 14.1059L21.886 14.1729L21.953 14.2399L22.039 14.3069L22.125 14.3549L22.225 14.4029L22.325 14.4309L22.425 14.4599L22.53 14.4789H22.74L22.845 14.4599L22.95 14.4309L23.05 14.4029L23.136 14.3549L23.222 14.3069L23.308 14.2399L23.384 14.1729L23.451 14.1059L23.508 14.0199L23.556 13.9339L23.604 13.8339L23.642 13.7339L23.661 13.6339L23.68 13.5339L23.689 13.4289L23.68 13.3289L23.64 13.2189L23.621 13.1189L23.583 13.0189L23.535 12.9329L23.488 12.8469L23.43 12.7609L23.363 12.6849L23.287 12.6189L23.202 12.5609L23.114 12.5139L23.03 12.4659L22.93 12.4279L22.829 12.4089L22.724 12.3899L22.62 12.3799Z" fill="#f2f2f2"/>
</svg>
