<svg width="36" height="36" viewBox="0 0 36 36" fill="none" xmlns="http://www.w3.org/2000/svg">
<path d="M18 2.059C13.7736 2.06376 9.72176 3.74479 6.73328 6.73327C3.74479 9.72176 2.06377 13.7736 2.059 18C2.06377 22.2264 3.74479 26.2782 6.73328 29.2667C9.72176 32.2552 13.7736 33.9362 18 33.941C22.2264 33.9362 26.2782 32.2552 29.2667 29.2667C32.2552 26.2782 33.9362 22.2264 33.941 18C33.9362 13.7736 32.2552 9.72176 29.2667 6.73327C26.2782 3.74479 22.2264 2.06376 18 2.059ZM18 36C13.2277 35.9947 8.65244 34.0966 5.27793 30.7221C1.90342 27.3476 0.00529371 22.7723 0 18C0.00529371 13.2277 1.90342 8.65243 5.27793 5.27792C8.65244 1.90342 13.2277 0.00529371 18 0C22.7723 0.00529371 27.3476 1.90342 30.7221 5.27792C34.0966 8.65243 35.9947 13.2277 36 18C35.9947 22.7723 34.0966 27.3476 30.7221 30.7221C27.3476 34.0966 22.7723 35.9947 18 36Z" fill="#f2f2f2"/>
<path d="M8.74702 16.8649L13.247 20.2419L19.794 15.2479C19.8243 15.2309 19.8597 15.2254 19.8937 15.2326C19.9276 15.2397 19.9579 15.259 19.9787 15.2868C19.9995 15.3146 20.0095 15.349 20.0068 15.3836C20.0041 15.4183 19.9889 15.4507 19.964 15.4749L14.754 21.3319L13.453 26.0749C13.4501 26.132 13.4649 26.1886 13.4955 26.237C13.526 26.2853 13.5707 26.323 13.6235 26.3449C13.6763 26.3668 13.7346 26.3718 13.7904 26.3593C13.8461 26.3468 13.8967 26.3173 13.935 26.2749L16.851 22.9879L21.773 26.4939C21.8125 26.5197 21.8574 26.5359 21.9042 26.541C21.9511 26.5462 21.9985 26.5403 22.0426 26.5237C22.0867 26.5072 22.1263 26.4805 22.1582 26.4457C22.19 26.411 22.2133 26.3693 22.226 26.3239L25.058 11.0319C25.0686 10.9835 25.0659 10.9331 25.05 10.8861C25.0341 10.8391 25.0057 10.7973 24.9679 10.7652C24.9301 10.7331 24.8842 10.712 24.8352 10.704C24.7863 10.696 24.7361 10.7015 24.69 10.7199L8.83202 16.3839C8.78366 16.3989 8.74036 16.4268 8.70688 16.4648C8.6734 16.5027 8.65103 16.5491 8.64224 16.599C8.63345 16.6488 8.63858 16.7001 8.65707 16.7472C8.67556 16.7943 8.70668 16.8354 8.74702 16.8659" fill="#f2f2f2"/>
</svg>
