<svg width="90" height="41" viewBox="0 0 90 41" fill="none" xmlns="http://www.w3.org/2000/svg">
<g clip-path="url(#clip0_2_3)">
<path d="M84.9647 14.159C84.9647 13.6982 85.1035 13.2478 85.364 12.8647C85.6241 12.4816 85.994 12.183 86.427 12.0067C86.8595 11.8304 87.336 11.7843 87.7955 11.8742C88.2545 11.9641 88.6765 12.1859 89.0081 12.5117C89.3392 12.8375 89.5647 13.2526 89.6561 13.7045C89.7475 14.1563 89.7006 14.6248 89.5216 15.0504C89.342 15.4761 89.0384 15.8399 88.649 16.0959C88.2597 16.3519 87.8016 16.4885 87.3331 16.4885C86.705 16.4885 86.1025 16.2431 85.6587 15.8062C85.2144 15.3693 84.9647 14.7768 84.9647 14.159Z" fill="#86BC25"/>
<path d="M13.6279 7.81323C13.6279 10.5093 12.8905 12.5888 11.4158 14.0518C9.94102 15.5147 7.8679 16.2446 5.19632 16.2415H-0.0142212V0.0698242H5.55632C8.13316 0.0698242 10.1226 0.732966 11.5247 2.05926C12.9268 3.38554 13.6279 5.30352 13.6279 7.81323ZM9.1279 7.96698C9.1279 6.48539 8.83578 5.38585 8.25158 4.66835C7.92474 4.29893 7.51477 4.00969 7.05425 3.82365C6.59373 3.63761 6.09537 3.55991 5.59895 3.59676H4.33894V12.6587H5.28632C6.60316 12.6587 7.56948 12.272 8.18527 11.4986C8.80106 10.7252 9.11681 9.54795 9.13264 7.96698" fill="black"/>
<path d="M32.1536 0H28.0184V16.2416H32.1536V0Z" fill="black"/>
<path d="M45.7153 10.1848C45.7153 12.154 45.1879 13.6915 44.1331 14.7973C43.0784 15.903 41.6037 16.4559 39.7089 16.4559C38.9047 16.4933 38.1015 16.3614 37.3533 16.0689C36.605 15.7764 35.9288 15.3302 35.37 14.76C34.2963 13.6325 33.7595 12.1074 33.7595 10.1848C33.7595 8.26209 34.2868 6.73391 35.3416 5.60021C36.3931 4.50998 37.871 3.96487 39.7753 3.96487C40.8635 3.94322 41.9384 4.20352 42.8921 4.71964C43.7905 5.2232 44.5174 5.97699 44.981 6.88612C45.4893 7.91252 45.741 9.04342 45.7153 10.1848ZM37.9563 10.1848C37.9096 10.9914 38.0455 11.7982 38.3542 12.5469C38.4736 12.8047 38.6698 13.0207 38.9168 13.1662C39.1638 13.3118 39.45 13.3802 39.7374 13.3623C40.0217 13.38 40.3046 13.3113 40.5478 13.1654C40.791 13.0195 40.9827 12.8036 41.0968 12.5469C41.4007 11.7952 41.5364 10.988 41.4947 10.1801C41.5384 9.38377 41.4009 8.5879 41.0921 7.85055C40.9551 7.61215 40.7561 7.41381 40.5156 7.27581C40.2751 7.1378 40.0016 7.06508 39.7231 7.06508C39.4447 7.06508 39.1713 7.1378 38.9307 7.27581C38.6902 7.41381 38.4913 7.61215 38.3542 7.85055C38.0385 8.58613 37.8976 9.38288 37.9421 10.1801" fill="black"/>
<path d="M51.4943 4.1792H47.359V16.2416H51.4943V4.1792Z" fill="black"/>
<path d="M51.4943 0H47.359V2.71625H51.4943V0Z" fill="black"/>
<path d="M59.8642 13.1666C60.5501 13.1408 61.2261 12.999 61.8632 12.7473V15.8083C61.3516 16.0316 60.8182 16.2033 60.2716 16.3208C59.6885 16.4347 59.0945 16.4878 58.5 16.4792C57.1107 16.4792 56.1093 16.136 55.4969 15.4496C54.8844 14.7631 54.5779 13.7117 54.5779 12.2954V7.29615H53.1332V4.1606H54.5779V1.08094L58.7463 0.368103V4.1606H61.3848V7.27752H58.7463V11.9739C58.7463 12.7566 59.1205 13.148 59.8642 13.148" fill="black"/>
<path d="M69.4327 13.1666C70.1186 13.1408 70.795 12.999 71.4316 12.7473V15.8083C70.9201 16.0316 70.3867 16.2033 69.8401 16.3208C69.2569 16.4345 68.6629 16.4876 68.0685 16.4792C66.682 16.4792 65.6811 16.136 65.0653 15.4496C64.4495 14.7631 64.1431 13.7117 64.1464 12.2954V7.29615H62.6969V4.1606H64.1464V1.03435L68.3101 0.368103V4.1606H70.9485V7.27752H68.3101V11.9739C68.3101 12.7566 68.6843 13.148 69.4327 13.148" fill="black"/>
<path d="M82.4732 5.38597C81.4941 4.45413 80.1014 3.98822 78.2953 3.98822C76.4005 3.98822 74.9416 4.53333 73.9184 5.62358C72.8953 6.71381 72.3851 8.27614 72.3884 10.3106C72.3884 12.2861 72.9393 13.808 74.0416 14.8765C75.1439 15.945 76.6928 16.4793 78.6884 16.4793C79.5169 16.4898 80.3449 16.4243 81.1611 16.2836C81.8569 16.1543 82.5291 15.9234 83.1553 15.5987L82.5205 12.8824C82.0871 13.0583 81.6404 13.2016 81.1847 13.3111C80.5268 13.4523 79.8546 13.5211 79.1811 13.5161C78.4999 13.5549 77.8278 13.3515 77.2863 12.943C77.0547 12.7458 76.8695 12.5017 76.743 12.2275C76.6161 11.9533 76.5512 11.6554 76.5521 11.3543H83.9416V9.49062C83.9416 7.71085 83.449 6.34574 82.4637 5.39528L82.4732 5.38597ZM76.6374 8.72187C76.6435 8.18515 76.8472 7.66878 77.2105 7.26824C77.5393 6.95985 77.9789 6.79231 78.4326 6.80233C78.6695 6.79138 78.9063 6.83257 79.1252 6.92281C79.3435 7.01306 79.5392 7.15018 79.6974 7.32415C80.0209 7.71896 80.1891 8.21511 80.1711 8.72187H76.6374Z" fill="black"/>
<path d="M24.9443 5.38597C23.9637 4.45413 22.5759 3.98822 20.7616 3.98822C18.8669 3.98822 17.4095 4.53333 16.3895 5.62358C15.3696 6.71381 14.858 8.27614 14.8548 10.3106C14.8548 12.2861 15.4058 13.808 16.508 14.8765C17.6101 15.945 19.159 16.4793 21.1548 16.4793C21.9834 16.4898 22.8112 16.4243 23.6274 16.2836C24.3248 16.1547 24.9986 15.9238 25.6264 15.5987L24.9916 12.8824C24.5578 13.0576 24.1113 13.2009 23.6559 13.3111C22.9977 13.4519 22.3257 13.5206 21.6522 13.5161C20.9711 13.5549 20.2986 13.3515 19.7574 12.943C19.5246 12.7466 19.338 12.5028 19.2104 12.2285C19.0828 11.9542 19.0173 11.6559 19.0185 11.3543H26.408V9.49062C26.408 7.71085 25.9343 6.34574 24.9348 5.39528L24.9443 5.38597ZM19.1037 8.72187C19.1114 8.18454 19.3167 7.66813 19.6816 7.26824C19.8439 7.11491 20.0354 6.9948 20.2452 6.9148C20.455 6.83485 20.6788 6.7966 20.9037 6.80233C21.14 6.79208 21.3755 6.83359 21.5934 6.92384C21.8113 7.01408 22.0061 7.15078 22.1637 7.32415C22.4895 7.7177 22.6579 8.21473 22.6374 8.72187H19.1037Z" fill="black"/>
<path d="M11.79 27.7588C11.79 30.326 11.1079 32.2595 9.73895 33.5734C8.37 34.8873 6.36632 35.5442 3.71841 35.5442H-0.0142212V20.267H4.18262C6.65839 20.267 8.54366 20.9053 9.83842 22.1819C11.1458 23.4538 11.79 25.3175 11.79 27.7588ZM10.6105 27.8008C10.6105 25.6265 10.0452 23.9819 8.91474 22.8668C7.7842 21.7517 6.1263 21.1988 3.94104 21.2082H1.09894V34.603H3.6663C8.29578 34.603 10.6105 32.3356 10.6105 27.8008Z" fill="black"/>
<path d="M14.9116 35.5442H13.86V24.1946H14.9116V35.5442Z" fill="black"/>
<path d="M14.9116 22.8622H13.86V21.4645H14.9116V22.8622Z" fill="black"/>
<path d="M29.4252 35.5442H28.3737V24.1946H29.4252V35.5442Z" fill="black"/>
<path d="M29.4252 22.8622H28.3737V21.4645H29.4252V22.8622Z" fill="black"/>
<path d="M26.5121 24.1947V24.9169L24.1437 25.0613C24.7539 25.7841 25.0889 26.6936 25.091 27.6331C25.1093 28.1291 25.0194 28.623 24.8274 29.0819C24.6354 29.5408 24.3457 29.9539 23.9779 30.2935C23.1579 31.0026 22.0888 31.3688 20.9984 31.3138C20.6293 31.3234 20.26 31.3016 19.8947 31.2486C19.5239 31.4291 19.1999 31.6904 18.9473 32.0127C18.7377 32.2797 18.6229 32.6071 18.6205 32.9445C18.609 33.1021 18.6419 33.2598 18.7154 33.4003C18.7889 33.5408 18.9003 33.6587 19.0373 33.7412C19.4811 33.944 19.9706 34.0307 20.4584 33.9928H22.4763C23.4932 33.9262 24.5044 34.188 25.3563 34.7383C25.6923 34.9993 25.9588 35.3366 26.1328 35.7213C26.307 36.1059 26.3835 36.5265 26.3558 36.9467C26.3802 37.4997 26.256 38.0492 25.9957 38.54C25.7354 39.0308 25.3482 39.4454 24.8731 39.7421C23.8879 40.3897 22.4763 40.7159 20.6526 40.7159C19.1968 40.7159 18.0726 40.441 17.28 39.8912C16.8978 39.6406 16.587 39.2979 16.3773 38.8959C16.1675 38.4939 16.0657 38.0459 16.0816 37.5943C16.0569 36.876 16.3226 36.1774 16.8205 35.6514C17.3646 35.1081 18.0631 34.7394 18.8242 34.5938C18.4908 34.4535 18.2014 34.2284 17.9858 33.9415C17.7776 33.6745 17.6674 33.3461 17.6731 33.0097C17.6731 32.2518 18.1658 31.5841 19.151 31.0063C18.5017 30.7545 17.9508 30.3057 17.5784 29.7251C17.132 28.9862 16.9427 28.1243 17.0393 27.27C17.1359 26.4158 17.5131 25.6158 18.1137 24.9914C18.9266 24.2759 19.9943 23.9058 21.0837 23.9618C21.6792 23.9406 22.2743 24.0146 22.8458 24.1808L26.5121 24.1947ZM17.1805 37.4685C17.1805 39.0215 18.36 39.798 20.7189 39.798C23.7442 39.798 25.2584 38.8476 25.2616 36.9467C25.2854 36.6595 25.2324 36.3711 25.1077 36.1104C24.9831 35.8496 24.7911 35.6255 24.551 35.4604C23.8423 35.0986 23.0453 34.9373 22.2489 34.9945H20.3542C18.2368 35.0131 17.1805 35.8425 17.1805 37.4685ZM18.0616 27.731C18.0366 28.1112 18.0966 28.4922 18.2373 28.8472C18.3781 29.2021 18.5962 29.5224 18.8763 29.7856C19.5075 30.2557 20.2776 30.5102 21.0694 30.5102C21.8613 30.5102 22.6314 30.2557 23.2626 29.7856C23.5308 29.5091 23.7375 29.1808 23.8696 28.8214C24.0017 28.4621 24.0563 28.0796 24.03 27.6984C24.0617 27.3006 24.0076 26.9008 23.8712 26.525C23.7349 26.1493 23.5194 25.8061 23.2389 25.5179C22.6252 25.0028 21.8321 24.7422 21.0268 24.7911C20.6298 24.7695 20.2324 24.8273 19.8587 24.9611C19.485 25.0948 19.1427 25.3016 18.8526 25.5692C18.5804 25.8591 18.3701 26.1999 18.2343 26.5712C18.0984 26.9425 18.0396 27.3369 18.0616 27.731Z" fill="black"/>
<path d="M46.3737 35.5442L46.1085 33.7458H46.0232C45.5485 34.3852 44.9374 34.9148 44.2327 35.2973C43.5551 35.6182 42.8104 35.7778 42.0585 35.7632C41.0987 35.8175 40.1539 35.5111 39.4153 34.9059C39.0938 34.6005 38.8427 34.2307 38.6793 33.8215C38.5158 33.4124 38.4437 32.9734 38.468 32.5344C38.4532 32.0193 38.5768 31.5094 38.8262 31.0562C39.0757 30.6031 39.4423 30.2226 39.889 29.9533C40.8364 29.3383 42.1864 29.0215 43.9627 28.9795L46.1653 28.919V28.1688C46.2268 27.3024 45.9898 26.4407 45.4927 25.7228C45.2227 25.4309 44.8876 25.2045 44.5136 25.0614C44.1396 24.9183 43.737 24.8624 43.3374 24.8982C42.1764 24.9222 41.0386 25.2227 40.0216 25.7741L39.6285 24.8749C40.8011 24.3136 42.0855 24.0145 43.3895 23.999C44.6527 23.999 45.6001 24.322 46.2316 24.9681C46.8632 25.6141 47.179 26.6252 47.179 28.0011V35.5535L46.3737 35.5442ZM42.1106 34.8127C42.6462 34.8584 43.1855 34.788 43.6906 34.6066C44.1956 34.4253 44.6541 34.1372 45.0338 33.7629C45.4136 33.3885 45.7053 32.9368 45.8885 32.4397C46.0717 31.9425 46.1419 31.4119 46.0943 30.8851V29.7856L44.0716 29.8694C42.4516 29.944 41.2958 30.1956 40.6043 30.6149C40.2703 30.8221 39.9994 31.1141 39.8201 31.4602C39.6408 31.8062 39.5599 32.1935 39.5858 32.581C39.5671 32.8876 39.6167 33.1945 39.7313 33.4802C39.8458 33.7659 40.0225 34.0236 40.249 34.235C40.7822 34.6587 41.4603 34.8655 42.1437 34.8127H42.1106Z" fill="black"/>
<path d="M51.1437 35.5441H50.1016V19.2886H51.1437V35.5441Z" fill="black"/>
<path d="M35.6873 34.8313C36.2727 34.8408 36.8574 34.7861 37.4305 34.6683V35.5023C36.8607 35.6786 36.2657 35.7635 35.6684 35.7538C35.255 35.7875 34.8391 35.7329 34.4491 35.5938C34.0591 35.4546 33.7043 35.2343 33.4089 34.9478C32.9258 34.4136 32.6842 33.5703 32.6842 32.4179V25.0845H30.9742V24.1946H32.67V21.6508L33.7405 21.4504V24.1946H37.1273V25.0938H33.7405V32.2828C33.6899 32.9601 33.8555 33.6361 34.2142 34.2163C34.389 34.4305 34.6151 34.5988 34.8721 34.7061C35.1291 34.8135 35.4092 34.8565 35.6873 34.8313Z" fill="black"/>
</g>
<defs>
<clipPath id="clip0_2_3">
<rect width="90" height="41" fill="white"/>
</clipPath>
</defs>
</svg>
