<?xml version="1.0" standalone="no"?>
<!DOCTYPE svg PUBLIC "-//W3C//DTD SVG 20010904//EN"
 "http://www.w3.org/TR/2001/REC-SVG-20010904/DTD/svg10.dtd">
<svg version="1.0" xmlns="http://www.w3.org/2000/svg"
 width="180.000000pt" height="58.000000pt" viewBox="0 0 784.000000 58.000000"
 preserveAspectRatio="xMidYMid meet">

<g transform="translate(0.000000,58.000000) scale(0.100000,-0.100000)"
fill="#1f1f1f" stroke="none">
<path d="M1860 393 c0 -5 6 -15 13 -22 10 -11 8 -13 -13 -7 -38 10 -112 20
-142 18 -16 0 -62 -2 -103 -3 -41 -1 -72 -6 -69 -10 3 -5 -4 -9 -15 -9 -24 0
-36 16 -19 23 7 3 2 6 -12 6 -15 1 -31 -4 -37 -10 -9 -9 -23 -9 -55 -1 -43 11
-88 7 -98 -9 -3 -5 -17 -5 -30 -2 -22 6 -23 7 -4 14 18 7 18 8 -3 8 -13 1 -24
-7 -28 -19 -6 -20 -25 -28 -25 -11 0 20 -154 36 -177 19 -7 -6 -19 -5 -30 0
-25 14 -233 10 -226 -3 3 -5 0 -4 -8 3 -7 6 -20 12 -29 12 -12 -1 -11 -4 4
-15 26 -19 2 -19 -27 0 -21 14 -43 14 -122 2 -16 -3 -31 -10 -33 -16 -6 -17
-22 -13 -22 4 0 13 -7 15 -34 9 -57 -10 -107 -14 -192 -13 l-82 0 -4 -31 c-5
-32 14 -52 40 -43 7 3 12 -4 12 -16 0 -27 11 -32 79 -36 52 -4 62 -1 86 20 31
30 35 31 28 6 -4 -17 3 -18 89 -18 51 0 131 -5 178 -11 128 -16 680 -23 680
-9 0 8 3 7 9 -1 9 -16 117 -13 110 2 -9 19 49 26 163 20 70 -4 114 -11 106
-15 -10 -7 -9 -9 5 -9 9 0 17 4 17 9 0 5 20 9 45 9 25 -1 45 -5 45 -10 0 -4 8
-8 18 -8 13 0 14 2 4 9 -10 6 -4 10 19 15 24 4 35 2 44 -11 10 -13 16 -15 26
-6 21 17 257 22 264 6 2 -7 9 -13 15 -13 6 0 9 3 7 8 -8 12 115 13 130 0 11
-9 16 -9 22 1 5 8 25 10 62 7 30 -3 62 -3 72 0 20 6 23 30 5 37 -8 3 -6 6 5 6
9 1 17 -4 17 -10 0 -5 6 -7 13 -3 8 5 8 2 -2 -9 -12 -15 -11 -17 8 -17 12 0
19 -4 16 -10 -3 -6 4 -10 17 -10 18 0 20 2 8 10 -19 13 -8 13 25 0 19 -7 27
-6 31 3 3 9 22 13 54 13 26 0 46 -4 44 -7 -6 -10 26 -20 38 -13 11 7 86 15
123 14 11 -1 27 -1 35 -1 8 0 25 -5 37 -11 18 -9 27 -8 40 4 24 20 53 30 53
17 0 -6 4 -8 9 -5 5 4 11 0 14 -6 3 -10 7 -10 18 -1 8 6 25 11 39 11 14 -1 44
2 67 5 37 5 43 3 49 -15 5 -15 8 -17 14 -8 11 17 84 20 380 18 85 -1 114 2
112 11 -2 9 3 9 17 1 11 -6 57 -12 101 -14 64 -4 82 -1 87 10 4 12 11 11 39
-7 19 -11 34 -17 34 -12 0 5 17 9 37 9 20 0 38 5 41 12 2 8 8 8 19 -3 9 -9 24
-13 38 -9 12 3 26 1 29 -5 10 -16 46 -13 53 4 5 14 8 14 30 0 16 -11 29 -13
36 -7 12 9 26 9 100 -4 31 -5 37 -3 37 12 0 14 3 15 12 6 7 -7 21 -11 32 -11
17 1 18 2 4 6 -10 2 -18 9 -18 15 0 6 7 7 18 3 9 -4 28 -10 42 -12 14 -2 34
-9 46 -14 11 -6 24 -9 30 -8 5 1 52 0 104 -4 52 -4 238 -9 412 -13 268 -4 317
-3 312 9 -7 19 0 20 168 16 59 -1 105 -6 102 -10 -2 -4 0 -10 5 -13 5 -4 12
-2 16 4 4 6 10 8 15 5 5 -3 11 -1 15 4 3 6 11 8 18 6 32 -11 87 -14 87 -5 0
16 40 12 57 -6 11 -11 19 -12 26 -5 14 14 171 15 162 1 -3 -5 -1 -10 4 -10 6
0 11 5 11 10 0 6 14 10 30 10 17 0 30 5 30 13 1 7 6 5 14 -5 11 -15 24 -17 80
-12 45 3 73 1 82 -7 11 -9 17 -9 29 1 8 7 24 10 35 7 11 -3 20 0 20 5 0 6 6 5
15 -2 10 -8 30 -10 61 -5 33 5 49 3 55 -6 6 -10 11 -10 23 0 9 8 16 9 16 4 0
-12 30 -10 50 2 17 10 100 14 94 4 -2 -4 3 -10 12 -13 22 -8 26 -8 19 4 -7 11
-9 11 128 14 53 1 91 -1 85 -6 -9 -5 -9 -8 -2 -8 6 0 17 7 24 15 11 14 15 14
36 0 14 -9 25 -11 29 -5 3 5 20 9 38 9 18 -1 49 2 70 5 20 3 37 1 37 -3 0 -5
11 -11 25 -13 14 -3 25 -2 25 1 0 3 17 6 38 7 20 0 73 2 117 3 44 1 95 0 113
-3 l32 -5 0 74 0 75 -117 2 c-371 6 -693 4 -693 -4 0 -5 -9 -4 -19 2 -26 13
-34 13 -24 -3 4 -6 -5 -4 -19 5 -25 16 -64 18 -442 18 -261 -1 -418 -4 -421
-11 -4 -5 -12 -6 -18 -2 -6 4 -25 8 -43 8 -26 2 -31 -1 -26 -18 5 -18 3 -18
-25 -3 -34 17 -134 24 -203 14 -25 -4 -52 -3 -59 2 -17 10 -43 2 -35 -12 4 -5
-6 -8 -22 -6 -17 2 -28 8 -27 15 4 16 -44 17 -49 2 -3 -8 -17 -9 -53 -1 -40 9
-54 8 -72 -4 -27 -17 -47 -18 -37 -2 5 8 -2 9 -26 4 -19 -3 -36 -10 -40 -15
-3 -5 -23 -3 -45 5 -22 8 -76 14 -120 14 -44 1 -98 1 -120 1 -142 1 -193 -4
-188 -17 7 -19 -22 -18 -38 2 -10 13 -23 15 -59 9 -57 -9 -547 -10 -1278 -2
-343 4 -571 3 -567 -3 3 -5 -8 -5 -27 1 -62 17 -155 9 -142 -13 4 -6 1 -8 -7
-6 -8 3 -13 10 -12 16 2 6 -35 10 -101 10 -57 -1 -107 2 -112 4 -5 3 -91 6
-191 7 -165 2 -182 0 -192 -16 -10 -17 -10 -17 -11 0 0 15 -7 17 -47 13 -27
-3 -48 -6 -48 -7 0 -7 -62 -4 -72 4 -8 5 -13 6 -13 0z m4835 -23 c3 -5 1 -10
-4 -10 -6 0 -11 5 -11 10 0 6 2 10 4 10 3 0 8 -4 11 -10z m325 0 c0 -5 -4 -10
-10 -10 -5 0 -10 5 -10 10 0 6 5 10 10 10 6 0 10 -4 10 -10z m-4633 -6 c-3 -3
-12 -4 -19 -1 -8 3 -5 6 6 6 11 1 17 -2 13 -5z m-1239 -66 c6 -6 12 -16 12
-22 0 -6 -5 -3 -11 7 -5 9 -15 17 -20 17 -6 0 -7 -4 -4 -10 7 -12 -2 -12 -30
-1 -13 6 -30 3 -48 -8 -25 -14 -29 -14 -37 -1 -15 24 -12 32 10 25 11 -3 20
-3 20 2 0 11 92 3 108 -9z m2647 12 c3 -5 1 -10 -4 -10 -6 0 -11 5 -11 10 0 6
2 10 4 10 3 0 8 -4 11 -10z m-2940 -10 c3 -5 1 -10 -4 -10 -6 0 -10 -4 -8 -9
1 -5 -1 -9 -5 -10 -25 -3 -28 0 -18 19 12 22 25 26 35 10z m115 -1 c23 -8 22
-8 -6 -4 -43 6 -74 -4 -75 -24 0 -12 -2 -13 -6 -2 -7 16 23 41 46 40 9 -1 27
-5 41 -10z m365 1 c-3 -5 -12 -10 -18 -10 -7 0 -6 4 3 10 19 12 23 12 15 0z
m55 1 c0 -5 16 -9 36 -9 19 0 38 -3 41 -6 4 -3 -8 -6 -25 -6 -16 0 -37 -3 -45
-6 -9 -3 -16 3 -20 15 -3 12 -1 21 4 21 5 0 9 -4 9 -9z m225 0 c-6 -4 -26 -11
-45 -15 -29 -5 -32 -4 -19 7 19 14 79 22 64 8z m3350 -1 c-3 -5 -10 -10 -16
-10 -5 0 -9 5 -9 10 0 6 7 10 16 10 8 0 12 -4 9 -10z m137 -3 c6 -9 8 -9 8 1
0 6 12 12 28 12 28 0 52 -16 52 -34 0 -5 -6 -2 -13 9 -10 12 -16 14 -21 7 -4
-7 -20 -12 -35 -12 -15 0 -32 -5 -39 -12 -9 -9 -16 -7 -33 8 -12 10 -23 18
-25 17 -2 -2 -10 -2 -16 -2 -15 2 36 14 67 16 11 1 23 -3 27 -10z m361 -8 c36
-1 38 -2 17 -9 -49 -16 -70 -12 -69 13 0 12 3 16 6 10 2 -7 23 -13 46 -14z
m190 7 c3 -7 -9 -11 -33 -11 -25 -1 -34 2 -27 10 13 14 55 15 60 1z m262 5
c-3 -6 3 -14 12 -20 20 -12 9 -14 -24 -5 -27 7 -30 21 -5 27 9 3 18 5 20 6 2
0 1 -3 -3 -8z m-4620 -12 c11 -17 2 -18 -19 -3 -17 12 -17 14 -4 14 9 0 20 -5
23 -11z m586 -6 c12 -16 12 -17 -2 -6 -9 7 -19 10 -22 6 -4 -3 -7 -1 -7 5 0
17 16 15 31 -5z m59 13 c0 -3 -4 -8 -10 -11 -5 -3 -10 -1 -10 4 0 6 5 11 10
11 6 0 10 -2 10 -4z m227 -2 c-3 -3 -12 -4 -19 -1 -8 3 -5 6 6 6 11 1 17 -2
13 -5z m143 -3 c0 -5 -9 -7 -20 -4 -11 3 -20 7 -20 9 0 2 9 4 20 4 11 0 20 -4
20 -9z m387 3 c-3 -3 -12 -4 -19 -1 -8 3 -5 6 6 6 11 1 17 -2 13 -5z m2186
-14 c-6 -22 -18 -26 -28 -10 -8 13 3 30 20 30 8 0 11 -7 8 -20z m442 9 c11
-17 2 -18 -19 -3 -17 12 -17 14 -4 14 9 0 20 -5 23 -11z m42 5 c-3 -3 -12 -4
-19 -1 -8 3 -5 6 6 6 11 1 17 -2 13 -5z m723 -10 c0 -2 -9 -4 -21 -4 -11 0
-18 4 -14 10 5 8 35 3 35 -6z m107 10 c-3 -3 -12 -4 -19 -1 -8 3 -5 6 6 6 11
1 17 -2 13 -5z m143 -4 c0 -5 -7 -7 -15 -4 -8 4 -15 8 -15 10 0 2 7 4 15 4 8
0 15 -4 15 -10z m-4287 -7 c-7 -2 -19 -2 -25 0 -7 3 -2 5 12 5 14 0 19 -2 13
-5z m67 3 c0 -2 -7 -7 -16 -10 -8 -3 -12 -2 -9 4 6 10 25 14 25 6z m2810 0 c0
-3 -4 -8 -10 -11 -5 -3 -10 -1 -10 4 0 6 5 11 10 11 6 0 10 -2 10 -4z m1215
-6 c-3 -5 -12 -10 -18 -10 -7 0 -6 4 3 10 19 12 23 12 15 0z m-3628 -6 c-3 -3
-12 -4 -19 -1 -8 3 -5 6 6 6 11 1 17 -2 13 -5z m906 -1 c-13 -2 -33 -2 -45 0
-13 2 -3 4 22 4 25 0 35 -2 23 -4z m3124 1 c-3 -3 -12 -4 -19 -1 -8 3 -5 6 6
6 11 1 17 -2 13 -5z m138 -15 c11 -16 1 -19 -13 -3 -7 8 -8 14 -3 14 5 0 13
-5 16 -11z m702 5 c-3 -3 -12 -4 -19 -1 -8 3 -5 6 6 6 11 1 17 -2 13 -5z m46
-1 c-7 -2 -19 -2 -25 0 -7 3 -2 5 12 5 14 0 19 -2 13 -5z m-6423 -13 c-8 -5
-19 -10 -25 -10 -5 0 -3 5 5 10 8 5 20 10 25 10 6 0 3 -5 -5 -10z m183 0 c20
-1 20 -2 5 -11 -20 -11 -71 -1 -62 13 3 5 13 7 21 4 8 -3 24 -6 36 -6z m242 0
c3 -5 1 -10 -4 -10 -6 0 -11 5 -11 10 0 6 2 10 4 10 3 0 8 -4 11 -10z m3615 6
c0 -2 -7 -7 -16 -10 -8 -3 -12 -2 -9 4 6 10 25 14 25 6z m173 -6 c20 -1 20 -2
5 -11 -20 -11 -71 -1 -62 13 3 5 13 7 21 4 8 -3 24 -6 36 -6z m-3723 -9 c0 -5
-9 -7 -20 -4 -11 3 -20 7 -20 9 0 2 9 4 20 4 11 0 20 -4 20 -9z m1615 -1 c3
-5 -1 -10 -10 -10 -9 0 -13 5 -10 10 3 6 8 10 10 10 2 0 7 -4 10 -10z m1702 4
c-3 -3 -12 -4 -19 -1 -8 3 -5 6 6 6 11 1 17 -2 13 -5z m646 -1 c-7 -2 -19 -2
-25 0 -7 3 -2 5 12 5 14 0 19 -2 13 -5z"/>
<path d="M1570 220 c0 -11 43 -18 79 -12 49 7 36 17 -24 18 -30 1 -55 -2 -55
-6z"/>
<path d="M2215 220 c-3 -6 1 -7 9 -4 18 7 21 14 7 14 -6 0 -13 -4 -16 -10z"/>
<path d="M5613 212 c9 -8 31 -10 75 -6 34 4 62 10 62 13 0 4 -34 7 -75 6 -59
0 -72 -2 -62 -13z"/>
</g>
</svg>
