<?xml version="1.0" standalone="no"?>
<!DOCTYPE svg PUBLIC "-//W3C//DTD SVG 20010904//EN"
 "http://www.w3.org/TR/2001/REC-SVG-20010904/DTD/svg10.dtd">
<svg version="1.0" xmlns="http://www.w3.org/2000/svg"
 width="98.000000pt" height="80.000000pt" viewBox="0 0 98.000000 80.000000"
 preserveAspectRatio="xMidYMid meet">

<g transform="translate(0.000000,80.000000) scale(0.100000,-0.100000)"
fill="#1f1f1f" stroke="none">
<path d="M170 723 c-39 -12 -60 -28 -70 -52 -6 -17 -9 -99 -8 -226 l3 -200 25
0 25 0 3 205 c2 148 6 206 15 212 16 10 598 10 614 0 9 -6 13 -64 15 -212 l3
-205 25 0 25 0 3 208 c3 234 -1 249 -67 267 -36 10 -582 13 -611 3z"/>
<path d="M432 433 l3 -158 31 -3 c50 -5 55 10 52 169 l-3 144 -43 3 -43 3 3
-158z"/>
<path d="M605 467 c-3 -7 -5 -54 -3 -103 l3 -89 40 0 40 0 0 100 0 100 -38 3
c-25 2 -39 -1 -42 -11z"/>
<path d="M254 406 c-3 -7 -4 -40 -2 -72 l3 -59 40 0 40 0 3 73 3 72 -41 0
c-25 0 -43 -5 -46 -14z"/>
<path d="M27 183 c-15 -14 -6 -53 15 -67 19 -14 78 -16 434 -16 385 0 412 1
427 18 10 10 17 31 17 45 l0 27 -443 0 c-244 0 -447 -3 -450 -7z"/>
</g>
</svg>
