<?xml version="1.0" standalone="no"?>
<!DOCTYPE svg PUBLIC "-//W3C//DTD SVG 20010904//EN"
 "http://www.w3.org/TR/2001/REC-SVG-20010904/DTD/svg10.dtd">
<svg version="1.0" xmlns="http://www.w3.org/2000/svg"
 width="104.000000pt" height="102.000000pt" viewBox="0 0 104.000000 102.000000"
 preserveAspectRatio="xMidYMid meet">

<g transform="translate(0.000000,102.000000) scale(0.100000,-0.100000)"
fill="#1f1f1f" stroke="none">
<path d="M59 914 c-22 -26 1 -48 57 -54 l48 -5 51 -253 c34 -170 55 -256 65
-262 8 -6 122 -10 257 -10 196 0 244 3 256 14 8 8 19 41 26 73 6 32 25 118 40
191 40 185 60 172 -258 172 -226 0 -251 -2 -271 -18 -19 -16 -21 -22 -11 -40
12 -22 15 -22 246 -22 129 0 235 -2 235 -5 0 -2 -13 -66 -30 -142 -16 -75 -30
-138 -30 -140 0 -2 -92 -3 -204 -3 -186 0 -205 2 -210 18 -3 9 -25 122 -50
250 -25 128 -48 237 -51 242 -4 6 -39 10 -79 10 -55 0 -77 -4 -87 -16z"/>
<path d="M259 251 c-40 -41 -40 -89 2 -130 41 -41 85 -42 128 -2 24 22 31 38
31 66 0 51 -44 95 -95 95 -27 0 -44 -8 -66 -29z"/>
<path d="M713 262 c-28 -22 -45 -66 -37 -98 9 -34 60 -74 95 -74 42 0 90 46
91 88 1 18 -5 43 -12 56 -24 45 -96 60 -137 28z"/>
</g>
</svg>
