<?xml version="1.0" standalone="no"?>
<!DOCTYPE svg PUBLIC "-//W3C//DTD SVG 20010904//EN"
 "http://www.w3.org/TR/2001/REC-SVG-20010904/DTD/svg10.dtd">
<svg version="1.0" xmlns="http://www.w3.org/2000/svg"
 width="94.000000pt" height="116.000000pt" viewBox="0 0 94.000000 116.000000"
 preserveAspectRatio="xMidYMid meet">

<g transform="translate(0.000000,116.000000) scale(0.100000,-0.100000)"
fill="#1f1f1f" stroke="none">
<path d="M111 1004 c-20 -26 -21 -37 -21 -420 0 -267 4 -401 11 -417 20 -43
45 -47 303 -47 231 0 245 1 270 21 l26 20 0 277 0 276 -30 -34 -29 -35 -1
-158 0 -157 -242 2 -243 3 0 315 0 315 243 3 242 2 0 -25 c0 -31 10 -32 38 -2
27 29 27 37 2 65 -20 22 -26 22 -285 22 l-264 0 -20 -26z m313 -750 c19 -19
20 -35 3 -58 -16 -22 -45 -18 -63 9 -12 18 -11 24 2 43 18 26 37 28 58 6z"/>
<path d="M654 878 l-143 -142 29 -17 c16 -10 35 -29 42 -43 l13 -26 139 139
c112 112 139 144 139 167 0 29 -33 64 -61 64 -8 0 -80 -64 -158 -142z"/>
<path d="M438 699 c-34 -13 -56 -61 -65 -139 l-6 -62 34 6 c107 21 130 29 149
53 37 47 23 111 -30 138 -33 17 -44 17 -82 4z"/>
</g>
</svg>
